<svg width="26" height="26" viewBox="0 0 26 26" fill="none" xmlns="http://www.w3.org/2000/svg">
<path fill-rule="evenodd" clip-rule="evenodd" d="M1 0C0.447715 0 0 0.447715 0 1V11C0 11.5523 0.447715 12 1 12H11C11.5523 12 12 11.5523 12 11V1C12 0.447715 11.5523 0 11 0H1ZM1 13.5C0.447715 13.5 0 13.9477 0 14.5V24.5C0 25.0523 0.447715 25.5 1 25.5H11C11.5523 25.5 12 25.0523 12 24.5V14.5C12 13.9477 11.5523 13.5 11 13.5H1ZM14 1C14 0.447715 14.4477 0 15 0H25C25.5523 0 26 0.447715 26 1V11C26 11.5523 25.5523 12 25 12H15C14.4477 12 14 11.5523 14 11V1ZM15 13.5C14.4477 13.5 14 13.9477 14 14.5V24.5C14 25.0523 14.4477 25.5 15 25.5H25C25.5523 25.5 26 25.0523 26 24.5V14.5C26 13.9477 25.5523 13.5 25 13.5H15Z" fill="#566885"/>
</svg>
