<svg width="26" height="26" viewBox="0 0 26 26" fill="none" xmlns="http://www.w3.org/2000/svg">
<path fill-rule="evenodd" clip-rule="evenodd" d="M9.1 1C9.1 0.447715 9.54771 0 10.1 0H15.9C16.4523 0 16.9 0.447715 16.9 1V6.8C16.9 7.35229 16.4523 7.8 15.9 7.8H10.1C9.54771 7.8 9.1 7.35228 9.1 6.8V1ZM0 10.1C0 9.54772 0.447715 9.1 1 9.1H6.8C7.35229 9.1 7.8 9.54772 7.8 10.1V15.9C7.8 16.4523 7.35228 16.9 6.8 16.9H1C0.447715 16.9 0 16.4523 0 15.9V10.1ZM0 19.2C0 18.6477 0.447715 18.2 1 18.2H6.8C7.35229 18.2 7.8 18.6477 7.8 19.2V25C7.8 25.5523 7.35228 26 6.8 26H1C0.447715 26 0 25.5523 0 25V19.2ZM10.1 9.1C9.54771 9.1 9.1 9.54772 9.1 10.1V15.9C9.1 16.4523 9.54771 16.9 10.1 16.9H15.9C16.4523 16.9 16.9 16.4523 16.9 15.9V10.1C16.9 9.54772 16.4523 9.1 15.9 9.1H10.1ZM19.2 0C18.6477 0 18.2 0.447715 18.2 1V6.8C18.2 7.35228 18.6477 7.8 19.2 7.8H25C25.5523 7.8 26 7.35229 26 6.8V1C26 0.447715 25.5523 0 25 0H19.2ZM18.2 10.1C18.2 9.54772 18.6477 9.1 19.2 9.1H25C25.5523 9.1 26 9.54772 26 10.1V15.9C26 16.4523 25.5523 16.9 25 16.9H19.2C18.6477 16.9 18.2 16.4523 18.2 15.9V10.1ZM19.2 18.2C18.6477 18.2 18.2 18.6477 18.2 19.2V25C18.2 25.5523 18.6477 26 19.2 26H25C25.5523 26 26 25.5523 26 25V19.2C26 18.6477 25.5523 18.2 25 18.2H19.2ZM0 1C0 0.447715 0.447715 0 1 0H6.8C7.35229 0 7.8 0.447715 7.8 1V6.8C7.8 7.35229 7.35228 7.8 6.8 7.8H1C0.447715 7.8 0 7.35228 0 6.8V1ZM10.1 18.2C9.54771 18.2 9.1 18.6477 9.1 19.2V25C9.1 25.5523 9.54771 26 10.1 26H15.9C16.4523 26 16.9 25.5523 16.9 25V19.2C16.9 18.6477 16.4523 18.2 15.9 18.2H10.1Z" fill="#566885"/>
</svg>
